# xmcd
#
# Track frame offsets:
#	150
#	17235
#	34938
#	52368
#	70948
#	89440
#	107651
#	135382
#	156634
#	174367
#	194813
#	210166
#	227749
#
# Disc length: 3274 seconds
#
# Revision: 1
# Processed by: cddbd v1.5.2PL0 Copyright (c) Steve Scherf et al.
# Submitted via: audiograbber 1.83.01
#
DISCID=bb0cc80d
DTITLE=Zascha Moktan - The bottom Line
DYEAR=2008
DGENRE=Pop
TTITLE0=Ouch!
TTITLE1=Must Have Been An Angel
TTITLE2=B Cos Of U
TTITLE3=Gimme Luv
TTITLE4=Like U Do
TTITLE5=All My Life
TTITLE6=Mama
TTITLE7=Danny Don't Cry
TTITLE8=Sing Me A Song
TTITLE9=I Need A Man
TTITLE10=Whatever Comes
TTITLE11=I Know
TTITLE12=My Way
EXTD=
EXTT0=
EXTT1=
EXTT2=
EXTT3=
EXTT4=
EXTT5=
EXTT6=
EXTT7=
EXTT8=
EXTT9=
EXTT10=
EXTT11=
EXTT12=
PLAYORDER=
